<?xml version="1.0" encoding="UTF-8" standalone="no"?>
<svg
   id="svg1"
   version="1.1"
   viewBox="0 0 34.314002 34.930801"
   sodipodi:docname="UVA_rotunda.svg"
   inkscape:version="1.3 (0e150ed, 2023-07-21)"
   width="34.314003"
   height="34.930801"
   xmlns:inkscape="http://www.inkscape.org/namespaces/inkscape"
   xmlns:sodipodi="http://sodipodi.sourceforge.net/DTD/sodipodi-0.dtd"
   xmlns="http://www.w3.org/2000/svg"
   xmlns:svg="http://www.w3.org/2000/svg">
  <!-- Generator: Adobe Illustrator 30.0.0, SVG Export Plug-In . SVG Version: 2.1.1 Build 123)  -->
  <defs
     id="defs1">
    <style
      id="style1">&#10;      .st0, .st1 {&#10;        fill: #fafafa;&#10;      }&#10;&#10;      .st2, .st3 {&#10;        fill: #e5691a;&#10;      }&#10;&#10;      .st3, .st1 {&#10;        fill-rule: evenodd;&#10;      }&#10;    </style>
    <filter
       inkscape:label="Fast Crop"
       inkscape:auto-region="false"
       inkscape:menu="Fill and Transparency"
       inkscape:menu-tooltip="Does not filter but adds a filter region"
       style="color-interpolation-filters:sRGB"
       id="filter1">
      <feColorMatrix
         type="saturate"
         values="1"
         id="feColorMatrix1" />
    </filter>
  </defs>
  <sodipodi:namedview
     id="namedview1"
     bordercolor="#000000"
     borderopacity="0.25"
     inkscape:current-layer="g1"
     inkscape:cx="140.63685"
     inkscape:cy="64.852624"
     inkscape:deskcolor="#d1d1d1"
     inkscape:pagecheckerboard="0"
     inkscape:pageopacity="0.0"
     inkscape:showpageshadow="2"
     inkscape:window-height="945"
     inkscape:window-maximized="0"
     inkscape:window-width="2144"
     inkscape:window-x="0"
     inkscape:window-y="58"
     inkscape:zoom="4.0707682"
     pagecolor="#ffffff"
     shape-rendering="auto"
     showborder="true"
     showguides="true">
    <inkscape:page
       id="page1"
       x="0"
       y="0"
       width="34.314003"
       height="34.930801"
       bleed="0"
       inkscape:label="1"
       margin="0"
       inkscape:export-filename="UVA_rotunda.svg"
       inkscape:export-xdpi="96"
       inkscape:export-ydpi="96" />
  </sodipodi:namedview>
  <g
     id="g1"
     inkscape:groupmode="layer"
     inkscape:label="1">
    <g
       id="uvaliblogo"
       inkscape:label="uva"
       style="filter:url(#filter1)"
       transform="translate(2.8604999,-15.1171)">
      <path
         id="path3"
         class="st2"
         d="m 19.76,31.453 h 2.465 V 43.192 H 19.76 V 31.453" />
      <path
         id="path4"
         class="st2"
         d="M 6.45,31.453 H 8.837 V 43.192 H 6.45 V 31.453" />
      <path
         id="path5"
         class="st2"
         d="m 9.659,31.453 h 2.545 V 43.192 H 9.659 V 31.453" />
      <path
         id="path6"
         class="st2"
         d="m 13.026,31.453 h 2.545 V 43.192 H 13.026 V 31.453" />
      <path
         id="path7"
         class="st2"
         d="M 18.938,43.192 H 16.393 V 31.453 h 2.545 v 11.739" />
      <path
         id="path8"
         class="st2"
         d="M 21.166,30.624 H 7.455 l 7.038,-4.33 z" />
      <path
         id="path9"
         class="st2"
         d="m 0.003,26.25 v 4.374 h 5.874 l 7.11,-4.374 H 0.003" />
      <path
         id="path10"
         class="st2"
         d="m 15.945,26.25 h 12.649 v 4.374 H 22.686 L 15.945,26.25" />
      <path
         id="path11"
         class="st2"
         d="M 26.784,25.42 H 1.814 c 2.445,-4.41 7.119,-7.392 12.484,-7.392 5.365,0 10.04,2.981 12.486,7.392" />
      <path
         id="path12"
         class="st3"
         d="m 0.003,33.481 v -0.682 l 0.164,0.119 -0.119,0.366 -0.045,0.196 z m 4.866,9.711 H 3.762 l 0.553,-0.403 z m 0.76,0 H 4.873 L 4.661,42.539 5.22,42.132 H 4.528 L 4.314,41.474 4.101,42.132 H 3.409 l 0.56,0.407 -0.213,0.653 H 0.003 L 0,36.114 0.003,33.562 0.528,33.181 1.087,33.587 0.873,32.929 1.432,32.523 H 0.741 l -0.214,-0.658 -0.098,0.3 -0.134,0.358 H 0.003 v -1.07 H 5.629 Z M 0,36.114 0.56,36.52 0.346,37.178 0.905,36.772 1.464,37.178 1.25,36.52 1.81,36.114 H 1.119 L 0.905,35.457 0.691,36.114 h -0.692 z m 1.926,3.731 -0.214,0.657 0.559,-0.406 0.56,0.406 -0.214,-0.657 0.559,-0.406 H 2.485 L 2.271,38.781 2.057,39.439 H 1.366 l 0.56,0.406" />
      <path
         id="path13"
         class="st2"
         d="M 0.003,47.137 H 5.629 V 44.021 H 0.003 v 3.116" />
      <path
         id="path14"
         class="st3"
         d="m 23.046,44.02 h 5.547 v 3.116 H 23.046 V 44.02" />
      <path
         id="path15"
         class="st3"
         d="m 14.64,47.137 h -0.633 l 0.315,-0.229 z m -4.259,-0.916 -0.215,0.658 0.56,-0.406 0.559,0.406 -0.214,-0.658 0.559,-0.406 h -0.691 l -0.214,-0.658 -0.214,0.658 H 9.82 l 0.56,0.406 z m 3.596,0.436 -0.156,0.48 H 6.451 V 44.021 H 7.36 L 7.202,44.509 H 6.51 l 0.561,0.406 -0.215,0.657 0.56,-0.406 0.559,0.406 -0.213,-0.657 0.559,-0.406 H 7.63 L 7.472,44.021 h 13.695 l -0.158,0.488 h -0.691 l 0.559,0.406 -0.213,0.657 0.559,-0.406 0.559,0.406 -0.215,-0.657 0.56,-0.406 h -0.691 l -0.159,-0.488 h 0.949 v 3.116 h -7.402 l -0.156,-0.48 0.559,-0.406 h -0.692 l -0.214,-0.657 -0.214,0.657 h -0.691 l 0.56,0.406 z m 4.178,-0.436 0.56,-0.406 h -0.692 l -0.213,-0.658 -0.213,0.658 h -0.692 l 0.56,0.406 -0.214,0.658 0.559,-0.406 0.559,0.406 -0.215,-0.658" />
      <path
         id="path16"
         class="st3"
         d="m 28.594,32.826 v 0.538 l -0.141,-0.434 0.141,-0.103 z m 0,10.365 H 23.047 V 31.453 h 5.547 v 1.069 h -0.273 l -0.214,-0.657 -0.214,0.657 h -0.691 l 0.559,0.407 -0.214,0.657 0.559,-0.406 0.486,0.353 v 2.58 h -0.65 l -0.214,-0.657 -0.214,0.657 h -0.691 l 0.558,0.406 -0.213,0.658 0.56,-0.406 0.559,0.406 -0.214,-0.658 0.519,-0.376 v 7.047 z m -3.716,0 -0.213,-0.653 0.56,-0.406 h -0.691 l -0.213,-0.658 -0.214,0.658 h -0.691 l 0.56,0.406 -0.212,0.653 0.558,-0.402 0.553,0.402 h 0.005 z m 1.83,-3.346 0.561,-0.407 h -0.692 l -0.213,-0.656 -0.214,0.656 h -0.691 l 0.559,0.407 -0.214,0.658 0.56,-0.407 0.559,0.407 -0.214,-0.658" />
    </g>
  </g>
</svg>
